<svg width="598" height="589" viewBox="0 0 598 589" version="1.1" xmlns="http://www.w3.org/2000/svg" xmlns:xlink="http://www.w3.org/1999/xlink">
<title>logo-oncostats-wm</title>
<desc>Created using Figma</desc>
<g id="Canvas" transform="translate(-18948 -2281)">
<clipPath id="clip-0" clip-rule="evenodd">
<path d="M 18948 2281L 19546 2281L 19546 2870L 18948 2870L 18948 2281Z" fill="transparent"/>
</clipPath>
<g id="logo-oncostats-wm" clip-path="url(#clip-0)">
<path d="M 18948 2281L 19546 2281L 19546 2870L 18948 2870L 18948 2281Z" fill="transparent"/>
<g id="Group">
<g id="Rectangle 193">
<use xlink:href="#path0_fill" transform="translate(18957 2571)" fill="#51ADA8"/>
</g>
<g id="Rectangle 188">
<use xlink:href="#path1_fill" transform="translate(19107 2401)" fill="#51ADA8"/>
</g>
<g id="Rectangle 191">
<use xlink:href="#path2_fill" transform="translate(19257 2281)" fill="#51ADA8"/>
</g>
<g id="Rectangle 192">
<use xlink:href="#path3_fill" transform="translate(19406 2501)" fill="#51ADA8"/>
</g>
</g>
</g>
</g>
<defs>
<path id="path0_fill" fill-rule="evenodd" d="M 0 0L 0 140L 140 140L 140 0L 0 0Z"/>
<path id="path1_fill" fill-rule="evenodd" d="M 0 0L 0 310L 140 310L 140 0L 0 0Z"/>
<path id="path2_fill" fill-rule="evenodd" d="M 0 0L 0 429L 140 429L 140 0L 0 0Z"/>
<path id="path3_fill" fill-rule="evenodd" d="M 0 0L 0 210L 140 210L 140 0L 0 0Z"/>
<path id="path4_fill" fill-rule="evenodd" d="M 55 0C 70.038 0 82.9641 5.38799 93.7785 16.1641C 104.593 26.9403 110 39.8854 110 55C 110 70.5811 104.663 83.6429 93.9873 94.1858C 83.3122 104.729 70.3165 110 55 110C 39.6835 110 26.6878 104.729 16.0127 94.1858C 5.3375 83.6429 0 70.5811 0 55C 0 39.8854 5.40712 26.9403 16.2215 16.1641C 27.0359 5.38799 39.962 0 55 0L 55 0ZM 55 97C 66.4419 97 76.3023 92.8894 84.5814 84.668C 92.8605 76.4467 97 66.3908 97 54.5C 97 42.7021 93.0233 32.6694 85.0698 24.4016C 77.1162 16.1338 67.0931 12 55 12C 42.9069 12 32.8838 16.1338 24.9302 24.4016C 16.9767 32.6694 13 42.7021 13 54.5C 13 66.3908 17.1395 76.4467 25.4186 84.668C 33.6977 92.8894 43.5581 97 55 97L 55 97ZM 134.632 41.9461L 134.632 50.7033L 134.912 50.7033C 136.784 47.2745 139.52 44.6335 143.123 42.7801C 146.725 40.9267 150.585 40 154.702 40C 163.31 40 169.345 42.502 172.807 47.5062C 176.269 52.5104 178 59.4142 178 68.2178L 178 107L 165.368 107L 165.368 69.7469C 165.368 63.3527 164.456 58.6497 162.632 55.638C 160.807 52.6262 156.901 51.1203 150.912 51.1203C 148.292 51.1203 146 51.4447 144.035 52.0934C 142.07 52.7421 140.526 53.8077 139.404 55.2905C 138.281 56.7732 137.368 58.1864 136.667 59.5301C 135.965 60.8738 135.474 62.7735 135.193 65.2293C 134.912 67.685 134.749 69.6079 134.702 70.9979C 134.655 72.388 134.632 74.4267 134.632 77.1141L 134.632 107L 122 107L 122 41.9461L 134.632 41.9461ZM 243 44.3574L 243 60.6627C 237.886 54.759 231.656 51.8072 224.311 51.8072C 218.267 51.8072 213.129 54.1031 208.899 58.6948C 204.668 63.2865 202.553 68.6747 202.553 74.8594C 202.553 81.6065 204.668 87.182 208.899 91.5863C 213.129 95.9907 218.546 98.1928 225.147 98.1928C 231.935 98.1928 237.886 95.2878 243 89.4779L 243 105.643C 237.607 108.548 231.61 110 225.008 110C 215.338 110 207.086 106.673 200.251 100.02C 193.417 93.3668 190 85.1674 190 75.4217C 190 65.3012 193.417 56.8675 200.251 50.1205C 207.086 43.3735 215.57 40 225.705 40C 232.307 40 238.072 41.4525 243 44.3574L 243 44.3574ZM 286 40C 295.8 40 304.083 43.3735 310.85 50.1205C 317.617 56.8675 321 65.1606 321 75C 321 84.8394 317.617 93.1325 310.85 99.8795C 304.083 106.627 295.8 110 286 110C 276.2 110 267.917 106.627 261.15 99.8795C 254.383 93.1325 251 84.8394 251 75C 251 65.1606 254.383 56.8675 261.15 50.1205C 267.917 43.3735 276.2 40 286 40L 286 40ZM 285.5 52C 279.312 52 274.016 54.2576 269.609 58.773C 265.203 63.2884 263 68.6973 263 75C 263 81.2086 265.203 86.594 269.609 91.1564C 274.016 95.7188 279.312 98 285.5 98C 291.688 98 296.984 95.7188 301.391 91.1564C 305.797 86.594 308 81.2086 308 75C 308 68.6973 305.797 63.2884 301.391 58.773C 296.984 54.2576 291.688 52 285.5 52L 285.5 52ZM 390.658 15.9542L 380.215 22.2519C 376.316 15.6276 370.7 12.3155 363.367 12.3155C 358.911 12.3155 354.873 13.715 351.253 16.514C 347.633 19.313 345.823 22.905 345.823 27.2901C 345.823 33.6345 350.696 38.6726 360.443 42.4046L 367.962 45.3435C 376.316 48.609 382.745 52.6675 387.247 57.5191C 391.749 62.3707 394 68.9016 394 77.112C 394 86.6285 390.774 94.4889 384.323 100.693C 377.871 106.898 369.911 110 360.443 110C 351.996 110 344.755 107.224 338.722 101.673C 332.688 96.1217 329.114 89.0543 328 80.4707L 341.228 77.6718C 341.135 83.363 343.061 88.1213 347.006 91.9466C 350.951 95.7719 355.802 97.6845 361.557 97.6845C 367.127 97.6845 371.745 95.6552 375.411 91.5967C 379.078 87.5382 380.911 82.71 380.911 77.112C 380.911 71.9805 379.31 67.9453 376.108 65.0064C 372.905 62.0674 368.473 59.4317 362.81 57.0992L 355.57 54.0204C 348.422 50.9415 342.829 47.3961 338.791 43.3842C 334.753 39.3723 332.734 34.0077 332.734 27.2901C 332.734 19.0797 335.797 12.4788 341.924 7.48728C 348.051 2.49573 355.291 0 363.646 0C 375.713 0 384.717 5.31801 390.658 15.9542L 390.658 15.9542ZM 421.595 53.9907L 421.595 108L 408.907 108L 408.907 53.9907L 402 53.9907L 402 42.1762L 408.907 42.1762L 408.907 17L 421.595 17L 421.595 42.1762L 434 42.1762L 434 53.9907L 421.595 53.9907ZM 468.72 99C 475.347 99 480.55 96.7288 484.33 92.1864C 488.11 87.644 490 82.0355 490 75.3609C 490 68.7791 488.087 63.2402 484.26 58.7441C 480.433 54.248 475.253 52 468.72 52C 462.467 52 457.45 54.2944 453.67 58.8831C 449.89 63.4719 448 68.9645 448 75.3609C 448 81.8501 449.867 87.4122 453.6 92.0473C 457.333 96.6825 462.373 99 468.72 99L 468.72 99ZM 501 41.9679L 501 107.751L 488.495 107.751L 488.495 97.49L 488.217 97.49C 482.659 105.83 475.295 110 466.124 110C 456.583 110 449.011 106.556 443.406 99.6687C 437.802 92.7811 435 84.3709 435 74.4378C 435 65.0669 437.825 56.9846 443.476 50.1908C 449.126 43.3969 456.537 40 465.707 40C 475.063 40 482.566 44.3105 488.217 52.9317L 488.495 52.9317L 488.495 41.9679L 501 41.9679ZM 532.595 53.9907L 532.595 108L 519.907 108L 519.907 53.9907L 513 53.9907L 513 42.1762L 519.907 42.1762L 519.907 17L 532.595 17L 532.595 42.1762L 545 42.1762L 545 53.9907L 532.595 53.9907ZM 588.124 51.5261L 577.954 57.008C 576.096 53.166 573.31 51.245 569.594 51.245C 567.83 51.245 566.251 51.8775 564.858 53.1426C 563.464 54.4076 562.768 55.9304 562.768 57.7108C 562.768 58.5542 562.884 59.3273 563.116 60.0301C 563.348 60.7329 563.813 61.3889 564.509 61.998C 565.206 62.6071 565.81 63.1459 566.32 63.6145C 566.831 64.083 567.667 64.6218 568.828 65.2309C 569.989 65.84 570.895 66.3086 571.545 66.6365C 572.195 66.9645 573.286 67.4565 574.819 68.1124C 576.351 68.7684 577.396 69.2369 577.954 69.5181C 582.598 71.6734 586.266 74.1566 588.96 76.9679C 591.653 79.7791 593 83.5274 593 88.2129C 593 94.3976 590.794 99.5749 586.382 103.745C 581.971 107.915 576.7 110 570.57 110C 565.647 110 561.073 108.665 556.847 105.994C 552.621 103.323 549.672 99.739 548 95.241L 558.728 90.3213C 561.793 95.9438 565.74 98.755 570.57 98.755C 573.263 98.755 575.585 97.8882 577.536 96.1546C 579.486 94.421 580.461 92.1955 580.461 89.4779C 580.461 86.7604 578.929 84.3708 575.864 82.3092L 563.604 75.7028C 559.331 73.3601 556.173 71.0408 554.13 68.745C 552.087 66.4491 551.065 63.2396 551.065 59.1165C 551.065 53.7751 552.946 49.2537 556.707 45.5522C 560.469 41.8507 564.997 40 570.291 40C 578.464 40 584.409 43.842 588.124 51.5261L 588.124 51.5261Z"/>
</defs>
</svg>
